<?xml version="1.0" encoding="UTF-8"?>
<svg width="20px" height="20px" viewBox="0 0 20 20" version="1.1" xmlns="http://www.w3.org/2000/svg" xmlns:xlink="http://www.w3.org/1999/xlink">
    <!-- Generator: Sketch 50.2 (55047) - http://www.bohemiancoding.com/sketch -->
    <title>home</title>
    <desc>Created with Sketch.</desc>
    <defs>
        <polygon id="path-1" points="11.5323373 0 11.5323373 10.6452344 0 10.6452344 8.601776e-16 2.15009255e-15 11.5323373 2.15009255e-15"></polygon>
    </defs>
    <g id="Symbols" stroke="none" stroke-width="1" fill="none" fill-rule="evenodd">
        <g id="shipping-flow/freight-forwarding" transform="translate(-303.000000, -12.000000)">
            <g id="home">
                <g transform="translate(303.000000, 12.000000)">
                    <circle id="Oval-2" fill="#533FAE" cx="10" cy="10" r="10"></circle>
                    <g id="Page-1" transform="translate(4.236111, 4.189815)">
                        <mask id="mask-2" fill="white">
                            <use xlink:href="#path-1"></use>
                        </mask>
                        <g id="Clip-2"></g>
                        <path d="M10.2558856,5.73331967 L10.2558856,10.6398633 L6.9996246,10.6398633 C6.9996246,9.74848656 6.99992377,8.87012152 6.99947502,7.99175648 C6.99917584,7.43512829 6.97217559,7.40721367 6.43650843,7.40668412 C5.9631438,7.40623023 5.48933041,7.42075491 5.01663892,7.40176691 C4.69241145,7.38867957 4.56900307,7.51524099 4.57326627,7.84045771 C4.58441042,8.68440227 4.57745468,9.52864944 4.57543527,10.372821 C4.57521089,10.4583048 4.5592052,10.5437886 4.54895856,10.6452344 L1.28693852,10.6452344 L1.28693852,5.73392487 C0.98799107,5.73392487 0.725467789,5.76864794 0.477753515,5.72212356 C0.304084268,5.68951868 0.0636997028,5.57929752 0.0130648707,5.44297732 C-0.0368220319,5.30869966 0.0637744957,5.04074953 0.185761809,4.92916669 C1.94040459,3.32335714 3.71269851,1.73729208 5.47265158,0.137307541 C5.74833843,-0.113394528 5.93524603,0.0204292378 6.14556382,0.210990045 C7.73169807,1.6484797 9.31970214,3.08392683 10.9072575,4.5199035 C11.0650706,4.66265389 11.2515294,4.78437376 11.3725444,4.95390404 C11.4698501,5.09029988 11.5679784,5.31460031 11.5195874,5.44418771 C11.4703736,5.5760446 11.2517538,5.69209076 11.0907994,5.72129142 C10.839495,5.76683235 10.5742044,5.73331967 10.2558856,5.73331967" id="Fill-1" fill="#FFFFFF" mask="url(#mask-2)"></path>
                    </g>
                </g>
            </g>
        </g>
    </g>
</svg>