<?xml version="1.0" encoding="UTF-8"?>
<svg width="28px" height="22px" viewBox="0 0 28 22" version="1.1" xmlns="http://www.w3.org/2000/svg" xmlns:xlink="http://www.w3.org/1999/xlink">
    <!-- Generator: Sketch 50.2 (55047) - http://www.bohemiancoding.com/sketch -->
    <title>icn_cart</title>
    <desc>Created with Sketch.</desc>
    <defs></defs>
    <g id="Symbols" stroke="none" stroke-width="1" fill="none" fill-rule="evenodd">
        <g id="sticky-CTA-bar/with-wishlist" transform="translate(-117.000000, -7.000000)" stroke="#FF5151">
            <g id="cart">
                <g transform="translate(105.000000, 1.000000)">
                    <g id="icn_cart" transform="translate(11.000000, 2.000000)">
                        <g>
                            <g stroke-width="2">
                                <g transform="translate(1.000000, 5.000000)">
                                    <path d="M11.8640014,19.8005211 C10.6388668,19.8005211 9.64397787,18.8035838 9.64397787,17.5781422 C9.64397787,16.3492192 10.6388668,15.3519655 11.8640014,15.3519655 C13.0881885,15.3519655 14.0818141,16.3492192 14.0818141,17.5781422 C14.0818141,18.8035838 13.0881885,19.8005211 11.8640014,19.8005211 Z" id="Fill-1"></path>
                                    <path d="M20.3580199,19.8005211 C19.1328853,19.8005211 18.1379964,18.8035838 18.1379964,17.5781422 C18.1379964,16.3492192 19.1328853,15.3519655 20.3580199,15.3519655 C21.582207,15.3519655 22.5758326,16.3492192 22.5758326,17.5781422 C22.5758326,18.8035838 21.582207,19.8005211 20.3580199,19.8005211 Z" id="Fill-4"></path>
                                    <polyline id="Stroke-7" points="0.202811245 0.645040566 5.09097747 0.663737248 5.85732072 3.1550918"></polyline>
                                    <polyline id="Stroke-9" points="6.06841691 4.50913186 26.0910419 4.59918882 22.9028542 14.8545542 10.6256259 14.8545542 9.08388383 14.8545542 5.78306037 2.9671866"></polyline>
                                </g>
                            </g>
                        </g>
                    </g>
                </g>
            </g>
        </g>
    </g>
</svg>